<svg width="24" height="24" fill="#000000" xmlns="http://www.w3.org/2000/svg" version="1.1" x="0px" y="0px" viewBox="0 0 24 24" ><path d="M6,6h1v1H6V6H0v18h18v-6h-1v-1h1v1h6V0H6V6z M6,8h1v1H6V8z M6,10h1v1H6V10z M6,12h1v1H6V12z M6,14h1v1H6V14z M18,16h-1v-1   h1V16z M18,14h-1v-1h1V14z M18,12h-1v-1h1V12z M18,10h-1V9h1V10z M16,6h2v2h-1V7h-1V6z M16,18h-1v-1h1V18z M14,6h1v1h-1V6z M14,18   h-1v-1h1V18z M12,6h1v1h-1V6z M12,18h-1v-1h1V18z M10,6h1v1h-1V6z M10,18H9v-1h1V18z M8,6h1v1H8V6z M8,18H6v-2h1v1h1V18z"/></svg>
